{
  "accessors": [
    {
      "bufferView": 2,
      "componentType": 5126,
      "count": 76,
      "max": [
        -7.653742790222168,
        3.4981000423431396,
        -14.400473594665527
      ],
      "min": [
        -7.668942451477051,
        -8.164593696594238,
        -17.690954208374023
      ],
      "type": "VEC3"
    },
    {
      "bufferView": 2,
      "byteOffset": 912,
      "componentType": 5126,
      "count": 76,
      "max": [
        -0.9998230934143066,
        0.005753256380558014,
        0.01850713975727558
      ],
      "min": [
        -0.9999995827674866,
        -1.843634709075559e-05,
        0.0009899742435663939
      ],
      "type": "VEC3"
    },
    {
      "bufferView": 1,
      "componentType": 5126,
      "count": 76,
      "max": [
        0.1503952145576477,
        0.9960936307907104
      ],
      "min": [
        0.13110752403736115,
        0.9870601296424866
      ],
      "type": "VEC2"
    },
    {
      "bufferView": 0,
      "componentType": 5125,
      "count": 198,
      "type": "SCALAR"
    },
    {
      "bufferView": 2,
      "byteOffset": 1824,
      "componentType": 5126,
      "count": 556,
      "max": [
        17.24148941040039,
        38.74366760253906,
        38.61824417114258
      ],
      "min": [
        -15.101444244384766,
        -38.69953155517578,
        -38.522239685058594
      ],
      "type": "VEC3"
    },
    {
      "bufferView": 2,
      "byteOffset": 8496,
      "componentType": 5126,
      "count": 556,
      "max": [
        0.9999995827674866,
        0.9999960660934448,
        0.9999956488609314
      ],
      "min": [
        -0.97772216796875,
        -0.9999979734420776,
        -0.9999946355819702
      ],
      "type": "VEC3"
    },
    {
      "bufferView": 3,
      "componentType": 5126,
      "count": 556,
      "max": [
        0.9011287093162537,
        0.9999950528144836,
        0.9999955296516418,
        1.0
      ],
      "min": [
        -0.9018363952636719,
        -1.0,
        -0.9999973773956299,
        -1.0
      ],
      "type": "VEC4"
    },
    {
      "bufferView": 1,
      "byteOffset": 608,
      "componentType": 5126,
      "count": 556,
      "max": [
        0.9985656142234802,
        0.9975585341453552
      ],
      "min": [
        0.003418073058128357,
        0.004364132881164551
      ],
      "type": "VEC2"
    },
    {
      "bufferView": 0,
      "byteOffset": 792,
      "componentType": 5125,
      "count": 2394,
      "type": "SCALAR"
    },
    {
      "bufferView": 2,
      "byteOffset": 15168,
      "componentType": 5126,
      "count": 9,
      "max": [
        10.771835327148438,
        31.85226821899414,
        31.68502426147461
      ],
      "min": [
        10.707420349121094,
        -31.823604583740234,
        -31.60618782043457
      ],
      "type": "VEC3"
    },
    {
      "bufferView": 2,
      "byteOffset": 15276,
      "componentType": 5126,
      "count": 9,
      "max": [
        -0.9999995231628418,
        1.250646050721116e-06,
        0.001017780159600079
      ],
      "min": [
        -0.9999995827674866,
        1.0604028375382768e-06,
        0.0010176217183470726
      ],
      "type": "VEC3"
    },
    {
      "bufferView": 1,
      "byteOffset": 5056,
      "componentType": 5126,
      "count": 9,
      "max": [
        0.993927538394928,
        0.6835139393806458
      ],
      "min": [
        0.9928058981895447,
        0.6823877692222595
      ],
      "type": "VEC2"
    },
    {
      "bufferView": 0,
      "byteOffset": 10368,
      "componentType": 5125,
      "count": 24,
      "type": "SCALAR"
    },
    {
      "bufferView": 2,
      "byteOffset": 15384,
      "componentType": 5126,
      "count": 5888,
      "max": [
        10.684037208557129,
        29.768192291259766,
        29.64965057373047
      ],
      "min": [
        -17.19985008239746,
        -29.72456169128418,
        -29.533178329467773
      ],
      "type": "VEC3"
    },
    {
      "bufferView": 2,
      "byteOffset": 86040,
      "componentType": 5126,
      "count": 5888,
      "max": [
        0.9232092499732971,
        0.9999932050704956,
        0.999997615814209
      ],
      "min": [
        -0.9999999403953552,
        -0.9999992251396179,
        -0.9999803900718689
      ],
      "type": "VEC3"
    },
    {
      "bufferView": 1,
      "byteOffset": 5128,
      "componentType": 5126,
      "count": 5888,
      "max": [
        0.9941709637641907,
        0.9968260526657104
      ],
      "min": [
        0.651875376701355,
        0.6635639667510986
      ],
      "type": "VEC2"
    },
    {
      "bufferView": 0,
      "byteOffset": 10464,
      "componentType": 5125,
      "count": 27498,
      "type": "SCALAR"
    },
    {
      "bufferView": 2,
      "byteOffset": 156696,
      "componentType": 5126,
      "count": 179,
      "max": [
        2.4733781814575195,
        20.419334411621094,
        20.351688385009766
      ],
      "min": [
        -12.295031547546387,
        -20.390546798706055,
        -20.27046775817871
      ],
      "type": "VEC3"
    },
    {
      "bufferView": 2,
      "byteOffset": 158844,
      "componentType": 5126,
      "count": 179,
      "max": [
        0.0009112839470617473,
        0.999161958694458,
        0.9991323947906494
      ],
      "min": [
        -0.9999995827674866,
        -0.999161958694458,
        -0.9990544319152832
      ],
      "type": "VEC3"
    },
    {
      "bufferView": 1,
      "byteOffset": 52232,
      "componentType": 5126,
      "count": 179,
      "max": [
        0.9914853572845459,
        0.7619556188583374
      ],
      "min": [
        0.669698178768158,
        0.35203099250793457
      ],
      "type": "VEC2"
    },
    {
      "bufferView": 0,
      "byteOffset": 120456,
      "componentType": 5125,
      "count": 498,
      "type": "SCALAR"
    },
    {
      "bufferView": 2,
      "byteOffset": 160992,
      "componentType": 5126,
      "count": 1851,
      "max": [
        6.9670915603637695,
        13.710040092468262,
        -9.008564949035645
      ],
      "min": [
        -7.679986953735352,
        -17.702739715576172,
        -22.225156784057617
      ],
      "type": "VEC3"
    },
    {
      "bufferView": 2,
      "byteOffset": 183204,
      "componentType": 5126,
      "count": 1851,
      "max": [
        0.9999723434448242,
        0.9999873042106628,
        0.9999823570251465
      ],
      "min": [
        -0.9999995827674866,
        -0.9976410865783691,
        -0.9999949932098389
      ],
      "type": "VEC3"
    },
    {
      "bufferView": 1,
      "byteOffset": 53664,
      "componentType": 5126,
      "count": 1851,
      "max": [
        0.9980773329734802,
        0.9931638240814209
      ],
      "min": [
        0.00317392498254776,
        0.0014343857765197754
      ],
      "type": "VEC2"
    },
    {
      "bufferView": 0,
      "byteOffset": 122448,
      "componentType": 5125,
      "count": 7359,
      "type": "SCALAR"
    },
    {
      "bufferView": 2,
      "byteOffset": 205416,
      "componentType": 5126,
      "count": 76,
      "max": [
        -8.648568153381348,
        6.399107933044434,
        16.203073501586914
      ],
      "min": [
        -8.66376781463623,
        -5.265964508056641,
        14.622570991516113
      ],
      "type": "VEC3"
    },
    {
      "bufferView": 2,
      "byteOffset": 206328,
      "componentType": 5126,
      "count": 76,
      "max": [
        -0.9998232126235962,
        0.0002818824432324618,
        -0.0009725152049213648
      ],
      "min": [
        -0.9999995827674866,
        -0.0026445980183780193,
        -0.018804529681801796
      ],
      "type": "VEC3"
    },
    {
      "bufferView": 1,
      "byteOffset": 68472,
      "componentType": 5126,
      "count": 76,
      "max": [
        0.1503952145576477,
        0.9960936307907104
      ],
      "min": [
        0.13110752403736115,
        0.9870601296424866
      ],
      "type": "VEC2"
    },
    {
      "bufferView": 0,
      "byteOffset": 151884,
      "componentType": 5125,
      "count": 198,
      "type": "SCALAR"
    },
    {
      "bufferView": 2,
      "byteOffset": 207240,
      "componentType": 5126,
      "count": 588,
      "max": [
        17.0784854888916,
        37.332855224609375,
        37.21835708618164
      ],
      "min": [
        -13.940116882324219,
        -37.365684509277344,
        -37.168495178222656
      ],
      "type": "VEC3"
    },
    {
      "bufferView": 2,
      "byteOffset": 214296,
      "componentType": 5126,
      "count": 588,
      "max": [
        0.9999988675117493,
        0.9999958872795105,
        0.9999966621398926
      ],
      "min": [
        -0.9909742474555969,
        -0.9999973177909851,
        -0.9999966621398926
      ],
      "type": "VEC3"
    },
    {
      "bufferView": 3,
      "byteOffset": 8896,
      "componentType": 5126,
      "count": 588,
      "max": [
        0.9015140533447266,
        0.9999962449073792,
        0.9999958872795105,
        1.0
      ],
      "min": [
        -0.8998711705207825,
        -0.999999463558197,
        -0.9999974370002747,
        -1.0
      ],
      "type": "VEC4"
    },
    {
      "bufferView": 1,
      "byteOffset": 69080,
      "componentType": 5126,
      "count": 588,
      "max": [
        0.9985656142234802,
        0.9975585341453552
      ],
      "min": [
        0.003418073058128357,
        0.004364132881164551
      ],
      "type": "VEC2"
    },
    {
      "bufferView": 0,
      "byteOffset": 152676,
      "componentType": 5125,
      "count": 2394,
      "type": "SCALAR"
    },
    {
      "bufferView": 2,
      "byteOffset": 221352,
      "componentType": 5126,
      "count": 9,
      "max": [
        11.741246223449707,
        32.0531120300293,
        31.839597702026367
      ],
      "min": [
        11.640875816345215,
        -31.829952239990234,
        -31.71785545349121
      ],
      "type": "VEC3"
    },
    {
      "bufferView": 2,
      "byteOffset": 221460,
      "componentType": 5126,
      "count": 9,
      "max": [
        -0.9999988079071045,
        -0.0010714181698858738,
        -0.0011547881877049804
      ],
      "min": [
        -0.9999988675117493,
        -0.0010723085142672062,
        -0.0011557629331946373
      ],
      "type": "VEC3"
    },
    {
      "bufferView": 1,
      "byteOffset": 73784,
      "componentType": 5126,
      "count": 9,
      "max": [
        0.9941380620002747,
        0.6757278442382813
      ],
      "min": [
        0.9925952553749084,
        0.6741788387298584
      ],
      "type": "VEC2"
    },
    {
      "bufferView": 0,
      "byteOffset": 162252,
      "componentType": 5125,
      "count": 24,
      "type": "SCALAR"
    },
    {
      "bufferView": 2,
      "byteOffset": 221568,
      "componentType": 5126,
      "count": 5914,
      "max": [
        11.664000511169434,
        29.93500518798828,
        29.77609634399414
      ],
      "min": [
        -16.164291381835938,
        -29.77147102355957,
        -29.640474319458008
      ],
      "type": "VEC3"
    },
    {
      "bufferView": 2,
      "byteOffset": 292536,
      "componentType": 5126,
      "count": 5914,
      "max": [
        0.9234905242919922,
        0.9999932646751404,
        0.9999590516090393
      ],
      "min": [
        -0.9999992847442627,
        -0.999929666519165,
        -0.9999842643737793
      ],
      "type": "VEC3"
    },
    {
      "bufferView": 1,
      "byteOffset": 73856,
      "componentType": 5126,
      "count": 5914,
      "max": [
        0.9941709637641907,
        0.9968260526657104
      ],
      "min": [
        0.651875376701355,
        0.6635639667510986
      ],
      "type": "VEC2"
    },
    {
      "bufferView": 0,
      "byteOffset": 162348,
      "componentType": 5125,
      "count": 27528,
      "type": "SCALAR"
    },
    {
      "bufferView": 2,
      "byteOffset": 363504,
      "componentType": 5126,
      "count": 153,
      "max": [
        3.1428911685943604,
        21.560325622558594,
        21.513378143310547
      ],
      "min": [
        -2.2739105224609375,
        -21.59280776977539,
        -21.46351432800293
      ],
      "type": "VEC3"
    },
    {
      "bufferView": 2,
      "byteOffset": 365340,
      "componentType": 5126,
      "count": 153,
      "max": [
        0.0012351266341283917,
        0.9991824626922607,
        0.9990740418434143
      ],
      "min": [
        -0.9999988675117493,
        -0.9991824626922607,
        -0.9990777969360352
      ],
      "type": "VEC3"
    },
    {
      "bufferView": 1,
      "byteOffset": 121168,
      "componentType": 5126,
      "count": 153,
      "max": [
        0.9914853572845459,
        0.6996978521347046
      ],
      "min": [
        0.669698178768158,
        0.35203099250793457
      ],
      "type": "VEC2"
    },
    {
      "bufferView": 0,
      "byteOffset": 272460,
      "componentType": 5125,
      "count": 432,
      "type": "SCALAR"
    },
    {
      "bufferView": 2,
      "byteOffset": 367176,
      "componentType": 5126,
      "count": 1851,
      "max": [
        5.97226619720459,
        16.37139320373535,
        21.450349807739258
      ],
      "min": [
        -8.674812316894531,
        -15.15808391571045,
        9.42876148223877
      ],
      "type": "VEC3"
    },
    {
      "bufferView": 2,
      "byteOffset": 389388,
      "componentType": 5126,
      "count": 1851,
      "max": [
        0.9999723434448242,
        0.9994775652885437,
        0.9999793767929077
      ],
      "min": [
        -0.9999995231628418,
        -0.999995768070221,
        -0.9999890923500061
      ],
      "type": "VEC3"
    },
    {
      "bufferView": 1,
      "byteOffset": 122392,
      "componentType": 5126,
      "count": 1851,
      "max": [
        0.9980773329734802,
        0.9931638240814209
      ],
      "min": [
        0.00317392498254776,
        0.0014343857765197754
      ],
      "type": "VEC2"
    },
    {
      "bufferView": 0,
      "byteOffset": 274188,
      "componentType": 5125,
      "count": 7359,
      "type": "SCALAR"
    },
    {
      "bufferView": 2,
      "byteOffset": 411600,
      "componentType": 5126,
      "count": 179,
      "max": [
        2.4733781814575195,
        20.419334411621094,
        20.351688385009766
      ],
      "min": [
        -12.295031547546387,
        -20.39054298400879,
        -20.27046775817871
      ],
      "type": "VEC3"
    },
    {
      "bufferView": 2,
      "byteOffset": 413748,
      "componentType": 5126,
      "count": 179,
      "max": [
        0.0009112698026001453,
        0.999161958694458,
        0.9991323947906494
      ],
      "min": [
        -0.9999995827674866,
        -0.999161958694458,
        -0.9990544319152832
      ],
      "type": "VEC3"
    },
    {
      "bufferView": 1,
      "byteOffset": 137200,
      "componentType": 5126,
      "count": 179,
      "max": [
        0.9914853572845459,
        0.7619556188583374
      ],
      "min": [
        0.669698178768158,
        0.35203099250793457
      ],
      "type": "VEC2"
    },
    {
      "bufferView": 0,
      "byteOffset": 303624,
      "componentType": 5125,
      "count": 498,
      "type": "SCALAR"
    },
    {
      "bufferView": 2,
      "byteOffset": 415896,
      "componentType": 5126,
      "count": 556,
      "max": [
        17.24148941040039,
        38.74366760253906,
        38.61824417114258
      ],
      "min": [
        -15.101444244384766,
        -38.69953155517578,
        -38.522239685058594
      ],
      "type": "VEC3"
    },
    {
      "bufferView": 2,
      "byteOffset": 422568,
      "componentType": 5126,
      "count": 556,
      "max": [
        0.9999995827674866,
        0.9999960660934448,
        0.9999956488609314
      ],
      "min": [
        -0.97772216796875,
        -0.9999979734420776,
        -0.9999946355819702
      ],
      "type": "VEC3"
    },
    {
      "bufferView": 3,
      "byteOffset": 18304,
      "componentType": 5126,
      "count": 556,
      "max": [
        0.9011287093162537,
        0.9999951124191284,
        0.9999955296516418,
        1.0
      ],
      "min": [
        -0.9018363952636719,
        -1.0,
        -0.9999973773956299,
        -1.0
      ],
      "type": "VEC4"
    },
    {
      "bufferView": 1,
      "byteOffset": 138632,
      "componentType": 5126,
      "count": 556,
      "max": [
        0.9985656142234802,
        0.9975585341453552
      ],
      "min": [
        0.003418073058128357,
        0.004364132881164551
      ],
      "type": "VEC2"
    },
    {
      "bufferView": 0,
      "byteOffset": 305616,
      "componentType": 5125,
      "count": 2394,
      "type": "SCALAR"
    },
    {
      "bufferView": 2,
      "byteOffset": 429240,
      "componentType": 5126,
      "count": 1851,
      "max": [
        7.032990455627441,
        13.672792434692383,
        22.22455406188965
      ],
      "min": [
        -7.60964822769165,
        -17.741161346435547,
        9.128898620605469
      ],
      "type": "VEC3"
    },
    {
      "bufferView": 2,
      "byteOffset": 451452,
      "componentType": 5126,
      "count": 1851,
      "max": [
        0.9999384880065918,
        0.9999284148216248,
        0.9999507069587708
      ],
      "min": [
        -0.9999926686286926,
        -0.9992268085479736,
        -0.9999764561653137
      ],
      "type": "VEC3"
    },
    {
      "bufferView": 1,
      "byteOffset": 143080,
      "componentType": 5126,
      "count": 1851,
      "max": [
        0.9980773329734802,
        0.9931638240814209
      ],
      "min": [
        0.00317392498254776,
        0.0014343857765197754
      ],
      "type": "VEC2"
    },
    {
      "bufferView": 0,
      "byteOffset": 315192,
      "componentType": 5125,
      "count": 7359,
      "type": "SCALAR"
    },
    {
      "bufferView": 2,
      "byteOffset": 473664,
      "componentType": 5126,
      "count": 76,
      "max": [
        -7.572933197021484,
        3.6147990226745605,
        17.36555290222168
      ],
      "min": [
        -7.592106819152832,
        -8.002276420593262,
        14.827977180480957
      ],
      "type": "VEC3"
    },
    {
      "bufferView": 2,
      "byteOffset": 474576,
      "componentType": 5126,
      "count": 76,
      "max": [
        -0.9999027252197266,
        0.001199141377583146,
        0.0038580186665058136
      ],
      "min": [
        -0.9999984502792358,
        -0.0028559910133481026,
        -0.013903853483498096
      ],
      "type": "VEC3"
    },
    {
      "bufferView": 1,
      "byteOffset": 157888,
      "componentType": 5126,
      "count": 76,
      "max": [
        0.1503952145576477,
        0.9960936307907104
      ],
      "min": [
        0.13110752403736115,
        0.9870601296424866
      ],
      "type": "VEC2"
    },
    {
      "bufferView": 0,
      "byteOffset": 344628,
      "componentType": 5125,
      "count": 198,
      "type": "SCALAR"
    },
    {
      "bufferView": 2,
      "byteOffset": 475488,
      "componentType": 5126,
      "count": 5888,
      "max": [
        10.684037208557129,
        29.76819610595703,
        29.64965057373047
      ],
      "min": [
        -17.19985008239746,
        -29.724559783935547,
        -29.533174514770508
      ],
      "type": "VEC3"
    },
    {
      "bufferView": 2,
      "byteOffset": 546144,
      "componentType": 5126,
      "count": 5888,
      "max": [
        0.923209011554718,
        0.9999932050704956,
        0.9999975562095642
      ],
      "min": [
        -1.0,
        -0.9999992251396179,
        -0.9999803900718689
      ],
      "type": "VEC3"
    },
    {
      "bufferView": 1,
      "byteOffset": 158496,
      "componentType": 5126,
      "count": 5888,
      "max": [
        0.9941709637641907,
        0.9968260526657104
      ],
      "min": [
        0.651875376701355,
        0.6635639667510986
      ],
      "type": "VEC2"
    },
    {
      "bufferView": 0,
      "byteOffset": 345420,
      "componentType": 5125,
      "count": 27498,
      "type": "SCALAR"
    },
    {
      "bufferView": 2,
      "byteOffset": 616800,
      "componentType": 5126,
      "count": 9,
      "max": [
        10.771835327148438,
        31.85226821899414,
        31.685028076171875
      ],
      "min": [
        10.707419395446777,
        -31.823604583740234,
        -31.606185913085938
      ],
      "type": "VEC3"
    },
    {
      "bufferView": 2,
      "byteOffset": 616908,
      "componentType": 5126,
      "count": 9,
      "max": [
        -0.9999995231628418,
        1.250646050721116e-06,
        0.0010178308002650738
      ],
      "min": [
        -0.9999995827674866,
        1.0604028375382768e-06,
        0.0010176267242059112
      ],
      "type": "VEC3"
    },
    {
      "bufferView": 1,
      "byteOffset": 205600,
      "componentType": 5126,
      "count": 9,
      "max": [
        0.993927538394928,
        0.6835139393806458
      ],
      "min": [
        0.9928058981895447,
        0.6823877692222595
      ],
      "type": "VEC2"
    },
    {
      "bufferView": 0,
      "byteOffset": 455412,
      "componentType": 5125,
      "count": 24,
      "type": "SCALAR"
    },
    {
      "bufferView": 2,
      "byteOffset": 617016,
      "componentType": 5126,
      "count": 9,
      "max": [
        11.741246223449707,
        32.0531120300293,
        31.839597702026367
      ],
      "min": [
        11.640875816345215,
        -31.829952239990234,
        -31.71785545349121
      ],
      "type": "VEC3"
    },
    {
      "bufferView": 2,
      "byteOffset": 617124,
      "componentType": 5126,
      "count": 9,
      "max": [
        -0.9999988079071045,
        -0.0010714181698858738,
        -0.001154814031906426
      ],
      "min": [
        -0.9999988675117493,
        -0.0010723085142672062,
        -0.0011557630496099591
      ],
      "type": "VEC3"
    },
    {
      "bufferView": 1,
      "byteOffset": 205672,
      "componentType": 5126,
      "count": 9,
      "max": [
        0.9941380620002747,
        0.6757278442382813
      ],
      "min": [
        0.9925952553749084,
        0.6741788387298584
      ],
      "type": "VEC2"
    },
    {
      "bufferView": 0,
      "byteOffset": 455508,
      "componentType": 5125,
      "count": 24,
      "type": "SCALAR"
    },
    {
      "bufferView": 2,
      "byteOffset": 617232,
      "componentType": 5126,
      "count": 588,
      "max": [
        17.0784854888916,
        37.332855224609375,
        37.21833038330078
      ],
      "min": [
        -13.940116882324219,
        -37.365684509277344,
        -37.16851806640625
      ],
      "type": "VEC3"
    },
    {
      "bufferView": 2,
      "byteOffset": 624288,
      "componentType": 5126,
      "count": 588,
      "max": [
        0.9999988675117493,
        0.9999958872795105,
        0.9999966621398926
      ],
      "min": [
        -0.9909742474555969,
        -0.9999973177909851,
        -0.9999966621398926
      ],
      "type": "VEC3"
    },
    {
      "bufferView": 3,
      "byteOffset": 27200,
      "componentType": 5126,
      "count": 588,
      "max": [
        0.9015139937400818,
        0.9999962449073792,
        0.9999958872795105,
        1.0
      ],
      "min": [
        -0.899871289730072,
        -0.999999463558197,
        -0.9999974370002747,
        -1.0
      ],
      "type": "VEC4"
    },
    {
      "bufferView": 1,
      "byteOffset": 205744,
      "componentType": 5126,
      "count": 588,
      "max": [
        0.9985656142234802,
        0.9975585341453552
      ],
      "min": [
        0.003418073058128357,
        0.004364132881164551
      ],
      "type": "VEC2"
    },
    {
      "bufferView": 0,
      "byteOffset": 455604,
      "componentType": 5125,
      "count": 2394,
      "type": "SCALAR"
    },
    {
      "bufferView": 2,
      "byteOffset": 631344,
      "componentType": 5126,
      "count": 5914,
      "max": [
        11.664000511169434,
        29.93500518798828,
        29.776084899902344
      ],
      "min": [
        -16.164291381835938,
        -29.77147102355957,
        -29.640487670898438
      ],
      "type": "VEC3"
    },
    {
      "bufferView": 2,
      "byteOffset": 702312,
      "componentType": 5126,
      "count": 5914,
      "max": [
        0.9234917163848877,
        0.9999933242797852,
        0.9999590516090393
      ],
      "min": [
        -0.9999992847442627,
        -0.999929666519165,
        -0.9999843835830688
      ],
      "type": "VEC3"
    },
    {
      "bufferView": 1,
      "byteOffset": 210448,
      "componentType": 5126,
      "count": 5914,
      "max": [
        0.9941709637641907,
        0.9968260526657104
      ],
      "min": [
        0.651875376701355,
        0.6635639667510986
      ],
      "type": "VEC2"
    },
    {
      "bufferView": 0,
      "byteOffset": 465180,
      "componentType": 5125,
      "count": 27528,
      "type": "SCALAR"
    },
    {
      "bufferView": 2,
      "byteOffset": 773280,
      "componentType": 5126,
      "count": 153,
      "max": [
        3.1428911685943604,
        21.560325622558594,
        21.51336669921875
      ],
      "min": [
        -2.2739105224609375,
        -21.59280776977539,
        -21.46352767944336
      ],
      "type": "VEC3"
    },
    {
      "bufferView": 2,
      "byteOffset": 775116,
      "componentType": 5126,
      "count": 153,
      "max": [
        0.0012346801813691854,
        0.9991824626922607,
        0.9990740418434143
      ],
      "min": [
        -0.9999988675117493,
        -0.9991825222969055,
        -0.9990777969360352
      ],
      "type": "VEC3"
    },
    {
      "bufferView": 1,
      "byteOffset": 257760,
      "componentType": 5126,
      "count": 153,
      "max": [
        0.9914853572845459,
        0.6996978521347046
      ],
      "min": [
        0.669698178768158,
        0.35203099250793457
      ],
      "type": "VEC2"
    },
    {
      "bufferView": 0,
      "byteOffset": 575292,
      "componentType": 5125,
      "count": 432,
      "type": "SCALAR"
    },
    {
      "bufferView": 2,
      "byteOffset": 776952,
      "componentType": 5126,
      "count": 1851,
      "max": [
        5.942857265472412,
        16.281110763549805,
        -9.42873764038086
      ],
      "min": [
        -8.704221725463867,
        -15.24836540222168,
        -21.45032501220703
      ],
      "type": "VEC3"
    },
    {
      "bufferView": 2,
      "byteOffset": 799164,
      "componentType": 5126,
      "count": 1851,
      "max": [
        0.9999723434448242,
        0.9999957084655762,
        0.9999891519546509
      ],
      "min": [
        -0.9999995231628418,
        -0.9994775652885437,
        -0.9999793767929077
      ],
      "type": "VEC3"
    },
    {
      "bufferView": 1,
      "byteOffset": 258984,
      "componentType": 5126,
      "count": 1851,
      "max": [
        0.9980773329734802,
        0.9931638240814209
      ],
      "min": [
        0.00317392498254776,
        0.0014343857765197754
      ],
      "type": "VEC2"
    },
    {
      "bufferView": 0,
      "byteOffset": 577020,
      "componentType": 5125,
      "count": 7359,
      "type": "SCALAR"
    },
    {
      "bufferView": 2,
      "byteOffset": 821376,
      "componentType": 5126,
      "count": 76,
      "max": [
        -8.677977561950684,
        6.3889923095703125,
        -14.622547149658203
      ],
      "min": [
        -8.69317626953125,
        -5.2760796546936035,
        -16.203048706054688
      ],
      "type": "VEC3"
    },
    {
      "bufferView": 2,
      "byteOffset": 822288,
      "componentType": 5126,
      "count": 76,
      "max": [
        -0.9998231530189514,
        0.002644623862579465,
        0.01880836859345436
      ],
      "min": [
        -0.9999995827674866,
        -0.0002818951033987105,
        0.0009702277020551264
      ],
      "type": "VEC3"
    },
    {
      "bufferView": 1,
      "byteOffset": 273792,
      "componentType": 5126,
      "count": 76,
      "max": [
        0.1503952145576477,
        0.9960936307907104
      ],
      "min": [
        0.13110752403736115,
        0.9870601296424866
      ],
      "type": "VEC2"
    },
    {
      "bufferView": 0,
      "byteOffset": 606456,
      "componentType": 5125,
      "count": 198,
      "type": "SCALAR"
    },
    {
      "bufferView": 2,
      "byteOffset": 823200,
      "componentType": 5126,
      "count": 19,
      "max": [
        10.046455383300781,
        91.13489532470703,
        9.854353904724121
      ],
      "min": [
        -58.708221435546875,
        55.720298767089844,
        -12.297399520874023
      ],
      "type": "VEC3"
    },
    {
      "bufferView": 2,
      "byteOffset": 823428,
      "componentType": 5126,
      "count": 19,
      "max": [
        0.0007344522746279836,
        0.48536741733551025,
        0.9936386346817017
      ],
      "min": [
        -0.04245026782155037,
        0.10703404992818832,
        0.874310314655304
      ],
      "type": "VEC3"
    },
    {
      "bufferView": 1,
      "byteOffset": 274400,
      "componentType": 5126,
      "count": 19,
      "max": [
        0.8552507162094116,
        0.3754692077636719
      ],
      "min": [
        0.6758018732070923,
        0.251442015171051
      ],
      "type": "VEC2"
    },
    {
      "bufferView": 0,
      "byteOffset": 607248,
      "componentType": 5125,
      "count": 39,
      "type": "SCALAR"
    },
    {
      "bufferView": 2,
      "byteOffset": 823656,
      "componentType": 5126,
      "count": 401,
      "max": [
        86.16670989990234,
        119.93770599365234,
        106.943115234375
      ],
      "min": [
        -86.1526107788086,
        81.84666442871094,
        -45.949668884277344
      ],
      "type": "VEC3"
    },
    {
      "bufferView": 2,
      "byteOffset": 828468,
      "componentType": 5126,
      "count": 401,
      "max": [
        0.9457848072052002,
        0.9942232370376587,
        0.6975775957107544
      ],
      "min": [
        -0.9457848072052002,
        0.21887348592281342,
        -0.8151279091835022
      ],
      "type": "VEC3"
    },
    {
      "bufferView": 1,
      "byteOffset": 274552,
      "componentType": 5126,
      "count": 401,
      "max": [
        0.9795221090316772,
        0.9892574548721313
      ],
      "min": [
        0.0158696249127388,
        0.20920437574386597
      ],
      "type": "VEC2"
    },
    {
      "bufferView": 0,
      "byteOffset": 607404,
      "componentType": 5125,
      "count": 1542,
      "type": "SCALAR"
    },
    {
      "bufferView": 2,
      "byteOffset": 833280,
      "componentType": 5126,
      "count": 835,
      "max": [
        109.57537841796875,
        97.60746002197266,
        231.94448852539063
      ],
      "min": [
        -109.56031036376953,
        8.790498733520508,
        -216.35482788085938
      ],
      "type": "VEC3"
    },
    {
      "bufferView": 2,
      "byteOffset": 843300,
      "componentType": 5126,
      "count": 835,
      "max": [
        1.0,
        0.985293447971344,
        0.9999842047691345
      ],
      "min": [
        -1.0,
        -0.9993059635162354,
        -0.9999814033508301
      ],
      "type": "VEC3"
    },
    {
      "bufferView": 1,
      "byteOffset": 277760,
      "componentType": 5126,
      "count": 835,
      "max": [
        0.6980193257331848,
        0.8312937021255493
      ],
      "min": [
        0.0046388134360313416,
        0.0077822208404541016
      ],
      "type": "VEC2"
    },
    {
      "bufferView": 0,
      "byteOffset": 613572,
      "componentType": 5125,
      "count": 2310,
      "type": "SCALAR"
    },
    {
      "bufferView": 2,
      "byteOffset": 853320,
      "componentType": 5126,
      "count": 3029,
      "max": [
        98.2217025756836,
        80.74714660644531,
        248.76377868652344
      ],
      "min": [
        -98.19171142578125,
        18.970304489135742,
        -236.6190948486328
      ],
      "type": "VEC3"
    },
    {
      "bufferView": 2,
      "byteOffset": 889668,
      "componentType": 5126,
      "count": 3029,
      "max": [
        0.9974882006645203,
        0.9999659061431885,
        0.999981701374054
      ],
      "min": [
        -0.997488796710968,
        -0.9961342811584473,
        -0.9999807476997375
      ],
      "type": "VEC3"
    },
    {
      "bufferView": 1,
      "byteOffset": 284440,
      "componentType": 5126,
      "count": 3029,
      "max": [
        0.9929502010345459,
        0.964110255241394
      ],
      "min": [
        0.017090365290641785,
        0.0036317110061645508
      ],
      "type": "VEC2"
    },
    {
      "bufferView": 0,
      "byteOffset": 622812,
      "componentType": 5125,
      "count": 7920,
      "type": "SCALAR"
    },
    {
      "bufferView": 2,
      "byteOffset": 926016,
      "componentType": 5126,
      "count": 10891,
      "max": [
        109.8624267578125,
        99.92111206054688,
        246.37269592285156
      ],
      "min": [
        -109.84736633300781,
        10.435933113098145,
        -244.87767028808594
      ],
      "type": "VEC3"
    },
    {
      "bufferView": 2,
      "byteOffset": 1056708,
      "componentType": 5126,
      "count": 10891,
      "max": [
        0.999994695186615,
        0.999945342540741,
        0.9994947910308838
      ],
      "min": [
        -0.9999924898147583,
        -0.9999986886978149,
        -0.9998302459716797
      ],
      "type": "VEC3"
    },
    {
      "bufferView": 1,
      "byteOffset": 308672,
      "componentType": 5126,
      "count": 10891,
      "max": [
        0.999786376953125,
        0.9904782176017761
      ],
      "min": [
        0.00878933072090149,
        0.004119992256164551
      ],
      "type": "VEC2"
    },
    {
      "bufferView": 0,
      "byteOffset": 654492,
      "componentType": 5125,
      "count": 45504,
      "type": "SCALAR"
    },
    {
      "bufferView": 2,
      "byteOffset": 1187400,
      "componentType": 5126,
      "count": 401,
      "max": [
        86.2098159790039,
        119.99751281738281,
        107.00503540039063
      ],
      "min": [
        -86.19571685791016,
        81.88742065429688,
        -45.9642333984375
      ],
      "type": "VEC3"
    },
    {
      "bufferView": 2,
      "byteOffset": 1192212,
      "componentType": 5126,
      "count": 401,
      "max": [
        0.9457849860191345,
        0.9942234754562378,
        0.6975935697555542
      ],
      "min": [
        -0.9457847476005554,
        0.2188635766506195,
        -0.8151326775550842
      ],
      "type": "VEC3"
    },
    {
      "bufferView": 1,
      "byteOffset": 395800,
      "componentType": 5126,
      "count": 401,
      "max": [
        0.9795221090316772,
        0.9892574548721313
      ],
      "min": [
        0.0158696249127388,
        0.20920437574386597
      ],
      "type": "VEC2"
    },
    {
      "bufferView": 0,
      "byteOffset": 836508,
      "componentType": 5125,
      "count": 1542,
      "type": "SCALAR"
    },
    {
      "bufferView": 2,
      "byteOffset": 1197024,
      "componentType": 5126,
      "count": 21157,
      "max": [
        110.40010070800781,
        93.52963256835938,
        248.93032836914063
      ],
      "min": [
        -110.39714813232422,
        7.205644130706787,
        -249.03285217285156
      ],
      "type": "VEC3"
    },
    {
      "bufferView": 2,
      "byteOffset": 1450908,
      "componentType": 5126,
      "count": 21157,
      "max": [
        1.0,
        0.9999999403953552,
        0.9999843239784241
      ],
      "min": [
        -1.0,
        -0.999997079372406,
        -0.9999828338623047
      ],
      "type": "VEC3"
    },
    {
      "bufferView": 1,
      "byteOffset": 399008,
      "componentType": 5126,
      "count": 21157,
      "max": [
        0.6662800908088684,
        0.9965819120407104
      ],
      "min": [
        0.004150517284870148,
        0.0024109482765197754
      ],
      "type": "VEC2"
    },
    {
      "bufferView": 0,
      "byteOffset": 842676,
      "componentType": 5125,
      "count": 61908,
      "type": "SCALAR"
    },
    {
      "bufferView": 2,
      "byteOffset": 1704792,
      "componentType": 5126,
      "count": 80,
      "max": [
        102.36913299560547,
        14.824604988098145,
        179.6560821533203
      ],
      "min": [
        -102.3689956665039,
        8.240425109863281,
        -224.63909912109375
      ],
      "type": "VEC3"
    },
    {
      "bufferView": 2,
      "byteOffset": 1705752,
      "componentType": 5126,
      "count": 80,
      "max": [
        0.056815166026353836,
        -0.9983839392662048,
        0.04669337719678879
      ],
      "min": [
        -0.05682889372110367,
        -0.9999738335609436,
        -0.00981026329100132
      ],
      "type": "VEC3"
    },
    {
      "bufferView": 3,
      "byteOffset": 36608,
      "componentType": 5126,
      "count": 80,
      "max": [
        1.0,
        0.0466841496527195,
        0.9999649524688721,
        1.0
      ],
      "min": [
        -1.0,
        -0.05682956799864769,
        -0.9996454119682312,
        -1.0
      ],
      "type": "VEC4"
    },
    {
      "bufferView": 1,
      "byteOffset": 568264,
      "componentType": 5126,
      "count": 80,
      "max": [
        0.8647724986076355,
        0.8889126181602478
      ],
      "min": [
        0.6045106649398804,
        0.2568132281303406
      ],
      "type": "VEC2"
    },
    {
      "bufferView": 0,
      "byteOffset": 1090308,
      "componentType": 5125,
      "count": 264,
      "type": "SCALAR"
    },
    {
      "bufferView": 2,
      "byteOffset": 1706712,
      "componentType": 5126,
      "count": 102,
      "max": [
        20.93914794921875,
        57.71998596191406,
        246.400146484375
      ],
      "min": [
        -20.924026489257813,
        46.55082702636719,
        245.18597412109375
      ],
      "type": "VEC3"
    },
    {
      "bufferView": 2,
      "byteOffset": 1707936,
      "componentType": 5126,
      "count": 102,
      "max": [
        1.0,
        0.9989033937454224,
        0.9999611973762512
      ],
      "min": [
        -1.0,
        -0.9989033937454224,
        -0.9999706745147705
      ],
      "type": "VEC3"
    },
    {
      "bufferView": 1,
      "byteOffset": 568904,
      "componentType": 5126,
      "count": 102,
      "max": [
        0.9975890517234802,
        0.5092623233795166
      ],
      "min": [
        0.004394665360450745,
        0.2712180018424988
      ],
      "type": "VEC2"
    },
    {
      "bufferView": 0,
      "byteOffset": 1091364,
      "componentType": 5125,
      "count": 216,
      "type": "SCALAR"
    },
    {
      "bufferView": 2,
      "byteOffset": 1709160,
      "componentType": 5126,
      "count": 256,
      "max": [
        104.9374008178711,
        97.26545715332031,
        243.8667755126953
      ],
      "min": [
        -104.92219543457031,
        9.01060676574707,
        -225.9443359375
      ],
      "type": "VEC3"
    },
    {
      "bufferView": 2,
      "byteOffset": 1712232,
      "componentType": 5126,
      "count": 256,
      "max": [
        1.0,
        0.7653272747993469,
        0.9999798536300659
      ],
      "min": [
        -1.0,
        -0.4633276164531708,
        -0.9999983906745911
      ],
      "type": "VEC3"
    },
    {
      "bufferView": 3,
      "byteOffset": 37888,
      "componentType": 5126,
      "count": 256,
      "max": [
        1.0,
        1.0,
        0.7584371566772461,
        1.0
      ],
      "min": [
        -1.0,
        -1.0,
        -0.5592296123504639,
        -1.0
      ],
      "type": "VEC4"
    },
    {
      "bufferView": 1,
      "byteOffset": 569720,
      "componentType": 5126,
      "count": 256,
      "max": [
        13.752765655517578,
        13.332388877868652
      ],
      "min": [
        -13.585037231445313,
        -12.021130561828613
      ],
      "type": "VEC2"
    },
    {
      "bufferView": 0,
      "byteOffset": 1092228,
      "componentType": 5125,
      "count": 744,
      "type": "SCALAR"
    },
    {
      "bufferView": 2,
      "byteOffset": 1715304,
      "componentType": 5126,
      "count": 5763,
      "max": [
        104.96752166748047,
        120.01683807373047,
        106.99626159667969
      ],
      "min": [
        -104.95252990722656,
        14.751225471496582,
        -64.4384536743164
      ],
      "type": "VEC3"
    },
    {
      "bufferView": 2,
      "byteOffset": 1784460,
      "componentType": 5126,
      "count": 5763,
      "max": [
        1.0,
        0.9999913573265076,
        0.9999978542327881
      ],
      "min": [
        -1.0,
        -0.9999738335609436,
        -0.9999790787696838
      ],
      "type": "VEC3"
    },
    {
      "bufferView": 1,
      "byteOffset": 571768,
      "componentType": 5126,
      "count": 5763,
      "max": [
        0.9980773329734802,
        0.4218573570251465
      ],
      "min": [
        0.6384472250938416,
        0.0031434297561645508
      ],
      "type": "VEC2"
    },
    {
      "bufferView": 0,
      "byteOffset": 1095204,
      "componentType": 5125,
      "count": 14523,
      "type": "SCALAR"
    },
    {
      "bufferView": 2,
      "byteOffset": 1853616,
      "componentType": 5126,
      "count": 1974,
      "max": [
        86.18870544433594,
        117.56341552734375,
        245.60411071777344
      ],
      "min": [
        -86.18894958496094,
        47.687294006347656,
        -234.6000213623047
      ],
      "type": "VEC3"
    },
    {
      "bufferView": 2,
      "byteOffset": 1877304,
      "componentType": 5126,
      "count": 1974,
      "max": [
        1.0,
        0.9999759793281555,
        0.9996912479400635
      ],
      "min": [
        -1.0,
        -0.9996341466903687,
        -0.9966036677360535
      ],
      "type": "VEC3"
    },
    {
      "bufferView": 1,
      "byteOffset": 617872,
      "componentType": 5126,
      "count": 1974,
      "max": [
        0.6369823217391968,
        0.9960936307907104
      ],
      "min": [
        0.003662221133708954,
        0.17819756269454956
      ],
      "type": "VEC2"
    },
    {
      "bufferView": 0,
      "byteOffset": 1153296,
      "componentType": 5125,
      "count": 6342,
      "type": "SCALAR"
    },
    {
      "bufferView": 2,
      "byteOffset": 1900992,
      "componentType": 5126,
      "count": 4501,
      "max": [
        112.93827056884766,
        127.312744140625,
        223.06802368164063
      ],
      "min": [
        -112.92317199707031,
        76.02449798583984,
        -15.549818992614746
      ],
      "type": "VEC3"
    },
    {
      "bufferView": 2,
      "byteOffset": 1955004,
      "componentType": 5126,
      "count": 4501,
      "max": [
        0.9999977350234985,
        0.9999790191650391,
        0.9999790191650391
      ],
      "min": [
        -0.9999977350234985,
        -0.9999847412109375,
        -0.9999990463256836
      ],
      "type": "VEC3"
    },
    {
      "bufferView": 1,
      "byteOffset": 633664,
      "componentType": 5126,
      "count": 4501,
      "max": [
        0.7341532707214355,
        0.694570779800415
      ],
      "min": [
        0.0024414807558059692,
        0.2922147512435913
      ],
      "type": "VEC2"
    },
    {
      "bufferView": 0,
      "byteOffset": 1178664,
      "componentType": 5125,
      "count": 17502,
      "type": "SCALAR"
    },
    {
      "bufferView": 2,
      "byteOffset": 2009016,
      "componentType": 5126,
      "count": 752,
      "max": [
        89.90522766113281,
        97.60746002197266,
        221.81475830078125
      ],
      "min": [
        -89.9053726196289,
        73.64664459228516,
        129.70953369140625
      ],
      "type": "VEC3"
    },
    {
      "bufferView": 2,
      "byteOffset": 2018040,
      "componentType": 5126,
      "count": 752,
      "max": [
        0.9938969612121582,
        0.9995750188827515,
        0.9999937415122986
      ],
      "min": [
        -0.995633065700531,
        -0.9506969451904297,
        -0.885526716709137
      ],
      "type": "VEC3"
    },
    {
      "bufferView": 1,
      "byteOffset": 669672,
      "componentType": 5126,
      "count": 752,
      "max": [
        0.6384472250938416,
        0.9926755428314209
      ],
      "min": [
        0.15552233159542084,
        0.3339640498161316
      ],
      "type": "VEC2"
    },
    {
      "bufferView": 0,
      "byteOffset": 1248672,
      "componentType": 5125,
      "count": 2832,
      "type": "SCALAR"
    },
    {
      "bufferView": 2,
      "byteOffset": 2027064,
      "componentType": 5126,
      "count": 240,
      "max": [
        -66.89659118652344,
        105.8832778930664,
        124.27190399169922
      ],
      "min": [
        -73.43814086914063,
        96.04103088378906,
        113.55020141601563
      ],
      "type": "VEC3"
    },
    {
      "bufferView": 2,
      "byteOffset": 2029944,
      "componentType": 5126,
      "count": 240,
      "max": [
        0.5070833563804626,
        0.9392228126525879,
        0.9762928485870361
      ],
      "min": [
        -0.9982864260673523,
        -0.881576657295227,
        -0.9762505292892456
      ],
      "type": "VEC3"
    },
    {
      "bufferView": 1,
      "byteOffset": 675688,
      "componentType": 5126,
      "count": 240,
      "max": [
        0.9079867005348206,
        0.5761589407920837
      ],
      "min": [
        0.7795647978782654,
        0.4523758888244629
      ],
      "type": "VEC2"
    },
    {
      "bufferView": 0,
      "byteOffset": 1260000,
      "componentType": 5125,
      "count": 1080,
      "type": "SCALAR"
    },
    {
      "bufferView": 2,
      "byteOffset": 2032824,
      "componentType": 5126,
      "count": 236,
      "max": [
        112.09225463867188,
        94.28839874267578,
        12.117107391357422
      ],
      "min": [
        -112.07735443115234,
        87.26273345947266,
        9.035823822021484
      ],
      "type": "VEC3"
    },
    {
      "bufferView": 2,
      "byteOffset": 2035656,
      "componentType": 5126,
      "count": 236,
      "max": [
        0.7672838568687439,
        0.567314863204956,
        0.9838366508483887
      ],
      "min": [
        -0.7642242908477783,
        -0.5453106164932251,
        0.6322429180145264
      ],
      "type": "VEC3"
    },
    {
      "bufferView": 1,
      "byteOffset": 677608,
      "componentType": 5126,
      "count": 236,
      "max": [
        0.13818781077861786,
        0.6306039690971375
      ],
      "min": [
        0.10522782057523727,
        0.5934934616088867
      ],
      "type": "VEC2"
    },
    {
      "bufferView": 0,
      "byteOffset": 1264320,
      "componentType": 5125,
      "count": 702,
      "type": "SCALAR"
    }
  ],
  "asset": {
    "extras": {
      "author": "SIU Car Garage (https://sketchfab.com/Game_mode)",
      "license": "CC-BY-NC-4.0 (http://creativecommons.org/licenses/by-nc/4.0/)",
      "source": "https://sketchfab.com/3d-models/2022-lexus-electrified-sport-concept-193db2edcbfa474882143498edae08a2",
      "title": "2022 Lexus Electrified Sport Concept"
    },
    "generator": "Sketchfab-16.75.0",
    "version": "2.0"
  },
  "bufferViews": [
    {
      "buffer": 0,
      "byteLength": 1267128,
      "name": "floatBufferViews",
      "target": 34963
    },
    {
      "buffer": 0,
      "byteLength": 679496,
      "byteOffset": 1267128,
      "byteStride": 8,
      "name": "floatBufferViews",
      "target": 34962
    },
    {
      "buffer": 0,
      "byteLength": 2038488,
      "byteOffset": 1946624,
      "byteStride": 12,
      "name": "floatBufferViews",
      "target": 34962
    },
    {
      "buffer": 0,
      "byteLength": 41984,
      "byteOffset": 3985112,
      "byteStride": 16,
      "name": "floatBufferViews",
      "target": 34962
    }
  ],
  "buffers": [
    {
      "byteLength": 4027096,
      "uri": "scene.bin"
    }
  ],
  "extensionsUsed": [
    "KHR_materials_clearcoat",
    "KHR_materials_specular",
    "KHR_materials_emissive_strength",
    "KHR_materials_transmission"
  ],
  "images": [
    {
      "uri": "textures/tire_baseColor.png"
    },
    {
      "uri": "textures/tire_normal.png"
    },
    {
      "uri": "textures/rim_bottom_baseColor.png"
    },
    {
      "uri": "textures/caliper_baseColor.png"
    },
    {
      "uri": "textures/imerior_emissiv_baseColor.png"
    },
    {
      "uri": "textures/windowmask_baseColor.png"
    },
    {
      "uri": "textures/body_baseColor.png"
    },
    {
      "uri": "textures/chasis_baseColor.png"
    },
    {
      "uri": "textures/chasis_normal.png"
    },
    {
      "uri": "textures/plate_baseColor.png"
    },
    {
      "uri": "textures/grill_baseColor.png"
    },
    {
      "uri": "textures/grill_normal.png"
    }
  ],
  "materials": [
    {
      "doubleSided": true,
      "name": "caliper_logo",
      "pbrMetallicRoughness": {
        "baseColorFactor": [
          0.8,
          0.8,
          0.8,
          1.0
        ],
        "metallicFactor": 0.0,
        "roughnessFactor": 0.8211145618000169
      }
    },
    {
      "doubleSided": true,
      "extensions": {
        "KHR_materials_clearcoat": {
          "clearcoatFactor": 0.3459058160939157,
          "clearcoatRoughnessFactor": 0.29104850605258986
        },
        "KHR_materials_specular": {
          "specularColorFactor": [
            1.0,
            1.0,
            1.0
          ],
          "specularFactor": 0.0
        }
      },
      "name": "tire",
      "normalTexture": {
        "index": 1
      },
      "pbrMetallicRoughness": {
        "baseColorTexture": {
          "index": 0
        },
        "metallicFactor": 0.0,
        "roughnessFactor": 0.8211145618000169
      }
    },
    {
      "doubleSided": true,
      "extensions": {
        "KHR_materials_specular": {
          "specularColorFactor": [
            1.0,
            1.0,
            1.0
          ],
          "specularFactor": 0.0
        }
      },
      "name": "rim_bottom",
      "pbrMetallicRoughness": {
        "baseColorTexture": {
          "index": 2
        },
        "metallicFactor": 0.0,
        "roughnessFactor": 0.8211145618000169
      }
    },
    {
      "doubleSided": true,
      "extensions": {
        "KHR_materials_specular": {
          "specularColorFactor": [
            1.0,
            1.0,
            1.0
          ],
          "specularFactor": 0.0
        }
      },
      "name": "material",
      "pbrMetallicRoughness": {
        "baseColorFactor": [
          0.5958113396155111,
          0.5958113396155111,
          0.5958113396155111,
          1.0
        ],
        "baseColorTexture": {
          "index": 2
        },
        "metallicFactor": 0.6019065962867696,
        "roughnessFactor": 0.28495324938133143
      }
    },
    {
      "doubleSided": true,
      "extensions": {
        "KHR_materials_specular": {
          "specularColorFactor": [
            1.0,
            1.0,
            1.0
          ],
          "specularFactor": 0.0
        }
      },
      "name": "rim_disc",
      "pbrMetallicRoughness": {
        "baseColorTexture": {
          "index": 2
        },
        "metallicFactor": 0.5287635162316685,
        "roughnessFactor": 0.236191196011264
      }
    },
    {
      "doubleSided": true,
      "extensions": {
        "KHR_materials_specular": {
          "specularColorFactor": [
            1.0,
            1.0,
            1.0
          ],
          "specularFactor": 0.0
        }
      },
      "name": "caliper",
      "pbrMetallicRoughness": {
        "baseColorTexture": {
          "index": 3
        },
        "metallicFactor": 0.5714303129304774,
        "roughnessFactor": 0.19961965598371345
      }
    },
    {
      "doubleSided": true,
      "emissiveFactor": [
        1.0,
        1.0,
        1.0
      ],
      "emissiveTexture": {
        "index": 4
      },
      "extensions": {
        "KHR_materials_emissive_strength": {
          "emissiveStrength": 1.9352439931245502
        },
        "KHR_materials_specular": {
          "specularColorFactor": [
            1.0,
            1.0,
            1.0
          ],
          "specularFactor": 0.0
        }
      },
      "name": "imerior_emissiv",
      "pbrMetallicRoughness": {
        "baseColorTexture": {
          "index": 4
        },
        "metallicFactor": 0.0,
        "roughnessFactor": 0.8211145618000169
      }
    },
    {
      "alphaCutoff": 0.4678109495190842,
      "alphaMode": "MASK",
      "doubleSided": true,
      "extensions": {
        "KHR_materials_clearcoat": {
          "clearcoatFactor": 1.0,
          "clearcoatRoughnessFactor": 0.04
        },
        "KHR_materials_specular": {
          "specularColorFactor": [
            1.0,
            1.0,
            1.0
          ],
          "specularFactor": 0.0
        }
      },
      "name": "windowmask",
      "pbrMetallicRoughness": {
        "baseColorTexture": {
          "index": 5
        },
        "metallicFactor": 0.0,
        "roughnessFactor": 0.8211145618000169
      }
    },
    {
      "doubleSided": true,
      "extensions": {
        "KHR_materials_specular": {
          "specularColorFactor": [
            1.0,
            1.0,
            1.0
          ],
          "specularFactor": 0.0
        }
      },
      "name": "misc_bottom",
      "pbrMetallicRoughness": {
        "baseColorTexture": {
          "index": 4
        },
        "metallicFactor": 0.0,
        "roughnessFactor": 0.8211145618000169
      }
    },
    {
      "alphaMode": "BLEND",
      "doubleSided": true,
      "extensions": {
        "KHR_materials_specular": {
          "specularColorFactor": [
            1.0,
            1.0,
            1.0
          ],
          "specularFactor": 0.0
        },
        "KHR_materials_transmission": {
          "transmissionFactor": 0.3737123770281967
        }
      },
      "name": "lightglass",
      "pbrMetallicRoughness": {
        "baseColorFactor": [
          0.0,
          0.0,
          0.0,
          0.6262876229718033
        ],
        "metallicFactor": 0.0,
        "roughnessFactor": 0.8211145618000169
      }
    },
    {
      "doubleSided": true,
      "extensions": {
        "KHR_materials_clearcoat": {
          "clearcoatFactor": 0.5165730028891516,
          "clearcoatRoughnessFactor": 0.04
        },
        "KHR_materials_specular": {
          "specularColorFactor": [
            1.0,
            1.0,
            1.0
          ],
          "specularFactor": 0.11428606258609549
        }
      },
      "name": "body",
      "pbrMetallicRoughness": {
        "baseColorFactor": [
          0.5470492862454438,
          0.5470492862454438,
          0.5470492862454438,
          1.0
        ],
        "baseColorTexture": {
          "index": 6
        },
        "metallicFactor": 0.2544769660250393,
        "roughnessFactor": 0.2605722226962977
      }
    },
    {
      "alphaMode": "BLEND",
      "doubleSided": true,
      "extensions": {
        "KHR_materials_clearcoat": {
          "clearcoatFactor": 1.0,
          "clearcoatRoughnessFactor": 0.04
        },
        "KHR_materials_specular": {
          "specularColorFactor": [
            1.0,
            1.0,
            1.0
          ],
          "specularFactor": 0.0
        },
        "KHR_materials_transmission": {
          "transmissionFactor": 0.04456851678024165
        }
      },
      "name": "window_1",
      "pbrMetallicRoughness": {
        "baseColorFactor": [
          0.0,
          0.0,
          0.0,
          0.9554314832197583
        ],
        "metallicFactor": 0.0,
        "roughnessFactor": 0.8211145618000169
      }
    },
    {
      "doubleSided": true,
      "extensions": {
        "KHR_materials_clearcoat": {
          "clearcoatFactor": 0.32152478940888196,
          "clearcoatRoughnessFactor": 0.13257183259987076
        },
        "KHR_materials_specular": {
          "specularColorFactor": [
            1.0,
            1.0,
            1.0
          ],
          "specularFactor": 0.0
        }
      },
      "name": "misc",
      "pbrMetallicRoughness": {
        "baseColorTexture": {
          "index": 2
        },
        "metallicFactor": 0.0,
        "roughnessFactor": 0.8211145618000169
      }
    },
    {
      "doubleSided": true,
      "extensions": {
        "KHR_materials_specular": {
          "specularColorFactor": [
            1.0,
            1.0,
            1.0
          ],
          "specularFactor": 0.0
        }
      },
      "name": "chasis",
      "normalTexture": {
        "index": 8
      },
      "pbrMetallicRoughness": {
        "baseColorFactor": [
          0.24228645268252244,
          0.24228645268252244,
          0.24228645268252244,
          1.0
        ],
        "baseColorTexture": {
          "index": 7
        },
        "metallicFactor": 0.0,
        "roughnessFactor": 0.8211145618000169
      }
    },
    {
      "doubleSided": true,
      "extensions": {
        "KHR_materials_specular": {
          "specularColorFactor": [
            1.0,
            1.0,
            1.0
          ],
          "specularFactor": 0.0
        }
      },
      "name": "plate",
      "pbrMetallicRoughness": {
        "baseColorTexture": {
          "index": 9
        },
        "metallicFactor": 0.0,
        "roughnessFactor": 0.8211145618000169
      }
    },
    {
      "alphaCutoff": 0.236191196011264,
      "alphaMode": "MASK",
      "doubleSided": true,
      "extensions": {
        "KHR_materials_specular": {
          "specularColorFactor": [
            1.0,
            1.0,
            1.0
          ],
          "specularFactor": 0.0
        }
      },
      "name": "grill",
      "normalTexture": {
        "index": 11
      },
      "pbrMetallicRoughness": {
        "baseColorFactor": [
          0.12038131925735392,
          0.12038131925735392,
          0.12038131925735392,
          1.0
        ],
        "baseColorTexture": {
          "index": 10
        },
        "metallicFactor": 0.0,
        "roughnessFactor": 0.8211145618000169
      }
    },
    {
      "doubleSided": true,
      "extensions": {
        "KHR_materials_specular": {
          "specularColorFactor": [
            1.0,
            1.0,
            1.0
          ],
          "specularFactor": 0.0
        }
      },
      "name": "interior",
      "pbrMetallicRoughness": {
        "baseColorTexture": {
          "index": 4
        },
        "metallicFactor": 0.7420974997257134,
        "roughnessFactor": 0.5992368738647584
      }
    },
    {
      "doubleSided": true,
      "extensions": {
        "KHR_materials_specular": {
          "specularColorFactor": [
            1.0,
            1.0,
            1.0
          ],
          "specularFactor": 0.0
        }
      },
      "name": "chrome",
      "pbrMetallicRoughness": {
        "baseColorTexture": {
          "index": 4
        },
        "roughnessFactor": 0.1569528592849045
      }
    },
    {
      "doubleSided": true,
      "extensions": {
        "KHR_materials_clearcoat": {
          "clearcoatFactor": 0.2971437627238483,
          "clearcoatRoughnessFactor": 0.04
        },
        "KHR_materials_specular": {
          "specularColorFactor": [
            1.0,
            1.0,
            1.0
          ],
          "specularFactor": 0.06552400921602808
        }
      },
      "name": "black",
      "pbrMetallicRoughness": {
        "baseColorFactor": [
          0.24228645268252244,
          0.24228645268252244,
          0.24228645268252244,
          1.0
        ],
        "baseColorTexture": {
          "index": 4
        },
        "metallicFactor": 0.0
      }
    },
    {
      "doubleSided": true,
      "extensions": {
        "KHR_materials_clearcoat": {
          "clearcoatFactor": 0.3276200460801404,
          "clearcoatRoughnessFactor": 0.26666747936755614
        },
        "KHR_materials_specular": {
          "specularColorFactor": [
            1.0,
            1.0,
            1.0
          ],
          "specularFactor": 0.1386670892711292
        }
      },
      "name": "misc_mat",
      "pbrMetallicRoughness": {
        "baseColorTexture": {
          "index": 4
        },
        "metallicFactor": 0.0,
        "roughnessFactor": 0.8211145618000169
      }
    },
    {
      "doubleSided": true,
      "name": "silver",
      "pbrMetallicRoughness": {
        "baseColorFactor": [
          0.8,
          0.8,
          0.8,
          1.0
        ],
        "metallicFactor": 0.0,
        "roughnessFactor": 0.8211145618000169
      }
    },
    {
      "doubleSided": true,
      "extensions": {
        "KHR_materials_specular": {
          "specularColorFactor": [
            1.0,
            1.0,
            1.0
          ],
          "specularFactor": 0.0
        }
      },
      "name": "mirror",
      "pbrMetallicRoughness": {
        "baseColorFactor": [
          0.8,
          0.8,
          0.8,
          1.0
        ],
        "roughnessFactor": 0.23009593934000558
      }
    }
  ],
  "meshes": [
    {
      "name": "RL_caliper_logo_0",
      "primitives": [
        {
          "attributes": {
            "NORMAL": 1,
            "POSITION": 0,
            "TEXCOORD_0": 2
          },
          "indices": 3,
          "material": 0,
          "mode": 4
        }
      ]
    },
    {
      "name": "RL_tire_0",
      "primitives": [
        {
          "attributes": {
            "NORMAL": 5,
            "POSITION": 4,
            "TANGENT": 6,
            "TEXCOORD_0": 7
          },
          "indices": 8,
          "material": 1,
          "mode": 4
        }
      ]
    },
    {
      "name": "RL_rim_bottom_0",
      "primitives": [
        {
          "attributes": {
            "NORMAL": 10,
            "POSITION": 9,
            "TEXCOORD_0": 11
          },
          "indices": 12,
          "material": 2,
          "mode": 4
        }
      ]
    },
    {
      "name": "RL_rim_0",
      "primitives": [
        {
          "attributes": {
            "NORMAL": 14,
            "POSITION": 13,
            "TEXCOORD_0": 15
          },
          "indices": 16,
          "material": 3,
          "mode": 4
        }
      ]
    },
    {
      "name": "RL_rim_disc_0",
      "primitives": [
        {
          "attributes": {
            "NORMAL": 18,
            "POSITION": 17,
            "TEXCOORD_0": 19
          },
          "indices": 20,
          "material": 4,
          "mode": 4
        }
      ]
    },
    {
      "name": "RL_caliper_0",
      "primitives": [
        {
          "attributes": {
            "NORMAL": 22,
            "POSITION": 21,
            "TEXCOORD_0": 23
          },
          "indices": 24,
          "material": 5,
          "mode": 4
        }
      ]
    },
    {
      "name": "FL_caliper_logo_0",
      "primitives": [
        {
          "attributes": {
            "NORMAL": 26,
            "POSITION": 25,
            "TEXCOORD_0": 27
          },
          "indices": 28,
          "material": 0,
          "mode": 4
        }
      ]
    },
    {
      "name": "FL_tire_0",
      "primitives": [
        {
          "attributes": {
            "NORMAL": 30,
            "POSITION": 29,
            "TANGENT": 31,
            "TEXCOORD_0": 32
          },
          "indices": 33,
          "material": 1,
          "mode": 4
        }
      ]
    },
    {
      "name": "FL_rim_bottom_0",
      "primitives": [
        {
          "attributes": {
            "NORMAL": 35,
            "POSITION": 34,
            "TEXCOORD_0": 36
          },
          "indices": 37,
          "material": 2,
          "mode": 4
        }
      ]
    },
    {
      "name": "FL_rim_0",
      "primitives": [
        {
          "attributes": {
            "NORMAL": 39,
            "POSITION": 38,
            "TEXCOORD_0": 40
          },
          "indices": 41,
          "material": 3,
          "mode": 4
        }
      ]
    },
    {
      "name": "FL_rim_disc_0",
      "primitives": [
        {
          "attributes": {
            "NORMAL": 43,
            "POSITION": 42,
            "TEXCOORD_0": 44
          },
          "indices": 45,
          "material": 4,
          "mode": 4
        }
      ]
    },
    {
      "name": "FL_caliper_0",
      "primitives": [
        {
          "attributes": {
            "NORMAL": 47,
            "POSITION": 46,
            "TEXCOORD_0": 48
          },
          "indices": 49,
          "material": 5,
          "mode": 4
        }
      ]
    },
    {
      "name": "RR_rim_disc_0",
      "primitives": [
        {
          "attributes": {
            "NORMAL": 51,
            "POSITION": 50,
            "TEXCOORD_0": 52
          },
          "indices": 53,
          "material": 4,
          "mode": 4
        }
      ]
    },
    {
      "name": "RR_tire_0",
      "primitives": [
        {
          "attributes": {
            "NORMAL": 55,
            "POSITION": 54,
            "TANGENT": 56,
            "TEXCOORD_0": 57
          },
          "indices": 58,
          "material": 1,
          "mode": 4
        }
      ]
    },
    {
      "name": "RR_caliper_0",
      "primitives": [
        {
          "attributes": {
            "NORMAL": 60,
            "POSITION": 59,
            "TEXCOORD_0": 61
          },
          "indices": 62,
          "material": 5,
          "mode": 4
        }
      ]
    },
    {
      "name": "RR_caliper_logo_0",
      "primitives": [
        {
          "attributes": {
            "NORMAL": 64,
            "POSITION": 63,
            "TEXCOORD_0": 65
          },
          "indices": 66,
          "material": 0,
          "mode": 4
        }
      ]
    },
    {
      "name": "RR_rim_0",
      "primitives": [
        {
          "attributes": {
            "NORMAL": 68,
            "POSITION": 67,
            "TEXCOORD_0": 69
          },
          "indices": 70,
          "material": 3,
          "mode": 4
        }
      ]
    },
    {
      "name": "RR_rim_bottom_0",
      "primitives": [
        {
          "attributes": {
            "NORMAL": 72,
            "POSITION": 71,
            "TEXCOORD_0": 73
          },
          "indices": 74,
          "material": 2,
          "mode": 4
        }
      ]
    },
    {
      "name": "FR_rim_bottom_0",
      "primitives": [
        {
          "attributes": {
            "NORMAL": 76,
            "POSITION": 75,
            "TEXCOORD_0": 77
          },
          "indices": 78,
          "material": 2,
          "mode": 4
        }
      ]
    },
    {
      "name": "FR_tire_0",
      "primitives": [
        {
          "attributes": {
            "NORMAL": 80,
            "POSITION": 79,
            "TANGENT": 81,
            "TEXCOORD_0": 82
          },
          "indices": 83,
          "material": 1,
          "mode": 4
        }
      ]
    },
    {
      "name": "FR_rim_0",
      "primitives": [
        {
          "attributes": {
            "NORMAL": 85,
            "POSITION": 84,
            "TEXCOORD_0": 86
          },
          "indices": 87,
          "material": 3,
          "mode": 4
        }
      ]
    },
    {
      "name": "FR_rim_disc_0",
      "primitives": [
        {
          "attributes": {
            "NORMAL": 89,
            "POSITION": 88,
            "TEXCOORD_0": 90
          },
          "indices": 91,
          "material": 4,
          "mode": 4
        }
      ]
    },
    {
      "name": "FR_caliper_0",
      "primitives": [
        {
          "attributes": {
            "NORMAL": 93,
            "POSITION": 92,
            "TEXCOORD_0": 94
          },
          "indices": 95,
          "material": 5,
          "mode": 4
        }
      ]
    },
    {
      "name": "FR_caliper_logo_0",
      "primitives": [
        {
          "attributes": {
            "NORMAL": 97,
            "POSITION": 96,
            "TEXCOORD_0": 98
          },
          "indices": 99,
          "material": 0,
          "mode": 4
        }
      ]
    },
    {
      "name": "BODY_imerior_emissiv_0",
      "primitives": [
        {
          "attributes": {
            "NORMAL": 101,
            "POSITION": 100,
            "TEXCOORD_0": 102
          },
          "indices": 103,
          "material": 6,
          "mode": 4
        }
      ]
    },
    {
      "name": "BODY_windowmask_0",
      "primitives": [
        {
          "attributes": {
            "NORMAL": 105,
            "POSITION": 104,
            "TEXCOORD_0": 106
          },
          "indices": 107,
          "material": 7,
          "mode": 4
        }
      ]
    },
    {
      "name": "BODY_misc_bottom_0",
      "primitives": [
        {
          "attributes": {
            "NORMAL": 109,
            "POSITION": 108,
            "TEXCOORD_0": 110
          },
          "indices": 111,
          "material": 8,
          "mode": 4
        }
      ]
    },
    {
      "name": "BODY_lightglass_0",
      "primitives": [
        {
          "attributes": {
            "NORMAL": 113,
            "POSITION": 112,
            "TEXCOORD_0": 114
          },
          "indices": 115,
          "material": 9,
          "mode": 4
        }
      ]
    },
    {
      "name": "BODY_body_0",
      "primitives": [
        {
          "attributes": {
            "NORMAL": 117,
            "POSITION": 116,
            "TEXCOORD_0": 118
          },
          "indices": 119,
          "material": 10,
          "mode": 4
        }
      ]
    },
    {
      "name": "BODY_window_1_0",
      "primitives": [
        {
          "attributes": {
            "NORMAL": 121,
            "POSITION": 120,
            "TEXCOORD_0": 122
          },
          "indices": 123,
          "material": 11,
          "mode": 4
        }
      ]
    },
    {
      "name": "BODY_misc_0",
      "primitives": [
        {
          "attributes": {
            "NORMAL": 125,
            "POSITION": 124,
            "TEXCOORD_0": 126
          },
          "indices": 127,
          "material": 12,
          "mode": 4
        }
      ]
    },
    {
      "name": "BODY_chasis_0",
      "primitives": [
        {
          "attributes": {
            "NORMAL": 129,
            "POSITION": 128,
            "TANGENT": 130,
            "TEXCOORD_0": 131
          },
          "indices": 132,
          "material": 13,
          "mode": 4
        }
      ]
    },
    {
      "name": "BODY_plate_0",
      "primitives": [
        {
          "attributes": {
            "NORMAL": 134,
            "POSITION": 133,
            "TEXCOORD_0": 135
          },
          "indices": 136,
          "material": 14,
          "mode": 4
        }
      ]
    },
    {
      "name": "BODY_grill_0",
      "primitives": [
        {
          "attributes": {
            "NORMAL": 138,
            "POSITION": 137,
            "TANGENT": 139,
            "TEXCOORD_0": 140
          },
          "indices": 141,
          "material": 15,
          "mode": 4
        }
      ]
    },
    {
      "name": "BODY_interior_0",
      "primitives": [
        {
          "attributes": {
            "NORMAL": 143,
            "POSITION": 142,
            "TEXCOORD_0": 144
          },
          "indices": 145,
          "material": 16,
          "mode": 4
        }
      ]
    },
    {
      "name": "BODY_chrome_0",
      "primitives": [
        {
          "attributes": {
            "NORMAL": 147,
            "POSITION": 146,
            "TEXCOORD_0": 148
          },
          "indices": 149,
          "material": 17,
          "mode": 4
        }
      ]
    },
    {
      "name": "BODY_black__0",
      "primitives": [
        {
          "attributes": {
            "NORMAL": 151,
            "POSITION": 150,
            "TEXCOORD_0": 152
          },
          "indices": 153,
          "material": 18,
          "mode": 4
        }
      ]
    },
    {
      "name": "BODY_misc_mat_0",
      "primitives": [
        {
          "attributes": {
            "NORMAL": 155,
            "POSITION": 154,
            "TEXCOORD_0": 156
          },
          "indices": 157,
          "material": 19,
          "mode": 4
        }
      ]
    },
    {
      "name": "BODY_silver_0",
      "primitives": [
        {
          "attributes": {
            "NORMAL": 159,
            "POSITION": 158,
            "TEXCOORD_0": 160
          },
          "indices": 161,
          "material": 20,
          "mode": 4
        }
      ]
    },
    {
      "name": "BODY_mirror_0",
      "primitives": [
        {
          "attributes": {
            "NORMAL": 163,
            "POSITION": 162,
            "TEXCOORD_0": 164
          },
          "indices": 165,
          "material": 21,
          "mode": 4
        }
      ]
    }
  ],
  "nodes": [
    {
      "children": [
        1
      ],
      "matrix": [
        1.0,
        0.0,
        0.0,
        0.0,
        0.0,
        2.220446049250313e-16,
        -1.0,
        0.0,
        0.0,
        1.0,
        2.220446049250313e-16,
        0.0,
        0.0,
        0.0,
        0.0,
        1.0
      ],
      "name": "Sketchfab_model"
    },
    {
      "children": [
        2
      ],
      "matrix": [
        0.009999999776482582,
        0.0,
        0.0,
        0.0,
        0.0,
        0.0,
        0.009999999776482582,
        0.0,
        0.0,
        -0.009999999776482582,
        0.0,
        0.0,
        0.0,
        0.0,
        0.0,
        1.0
      ],
      "name": "35933b53c7db4feead2fb7f9a5832de6.fbx"
    },
    {
      "children": [
        3,
        10,
        17,
        24,
        31
      ],
      "name": "RootNode"
    },
    {
      "children": [
        4,
        5,
        6,
        7,
        8,
        9
      ],
      "matrix": [
        0.9998476951587508,
        -0.017452406302104494,
        0.0,
        0.0,
        0.017452406302104494,
        0.9998476951587508,
        0.0,
        0.0,
        0.0,
        0.0,
        1.0,
        0.0,
        -92.4365005493164,
        38.712032318115234,
        142.59927368164063,
        1.0
      ],
      "name": "RL"
    },
    {
      "mesh": 0,
      "name": "RL_caliper_logo_0"
    },
    {
      "mesh": 1,
      "name": "RL_tire_0"
    },
    {
      "mesh": 2,
      "name": "RL_rim_bottom_0"
    },
    {
      "mesh": 3,
      "name": "RL_rim_0"
    },
    {
      "mesh": 4,
      "name": "RL_rim_disc_0"
    },
    {
      "mesh": 5,
      "name": "RL_caliper_0"
    },
    {
      "children": [
        11,
        12,
        13,
        14,
        15,
        16
      ],
      "matrix": [
        0.9996573249564867,
        -0.026176949036146684,
        0.0,
        0.0,
        0.026176949036146684,
        0.9996573249564867,
        0.0,
        0.0,
        0.0,
        0.0,
        1.0,
        0.0,
        -95.33439636230469,
        37.66183090209961,
        -141.81504821777344,
        1.0
      ],
      "name": "FL"
    },
    {
      "mesh": 6,
      "name": "FL_caliper_logo_0"
    },
    {
      "mesh": 7,
      "name": "FL_tire_0"
    },
    {
      "mesh": 8,
      "name": "FL_rim_bottom_0"
    },
    {
      "mesh": 9,
      "name": "FL_rim_0"
    },
    {
      "mesh": 10,
      "name": "FL_rim_disc_0"
    },
    {
      "mesh": 11,
      "name": "FL_caliper_0"
    },
    {
      "children": [
        18,
        19,
        20,
        21,
        22,
        23
      ],
      "matrix": [
        -0.9998476951587392,
        -0.01745240630210442,
        1.5099579909783712e-07,
        0.0,
        -0.017452406302104387,
        0.9998476951587508,
        1.5257378808212894e-09,
        0.0,
        -1.5099942950403281e-07,
        -1.1097345322108354e-09,
        -0.9999999999999885,
        0.0,
        92.4365005493164,
        38.712032318115234,
        142.59927368164063,
        1.0
      ],
      "name": "RR"
    },
    {
      "mesh": 12,
      "name": "RR_rim_disc_0"
    },
    {
      "mesh": 13,
      "name": "RR_tire_0"
    },
    {
      "mesh": 14,
      "name": "RR_caliper_0"
    },
    {
      "mesh": 15,
      "name": "RR_caliper_logo_0"
    },
    {
      "mesh": 16,
      "name": "RR_rim_0"
    },
    {
      "mesh": 17,
      "name": "RR_rim_bottom_0"
    },
    {
      "children": [
        25,
        26,
        27,
        28,
        29,
        30
      ],
      "matrix": [
        -0.9996573249564757,
        -0.026176949036146504,
        1.5099579909783712e-07,
        0.0,
        -0.026176949036146455,
        0.9996573249564867,
        2.2884615428279734e-09,
        0.0,
        -1.5100396154698874e-07,
        -1.6649319934871105e-09,
        -0.9999999999999889,
        0.0,
        95.33439636230469,
        37.66183090209961,
        -141.81504821777344,
        1.0
      ],
      "name": "FR"
    },
    {
      "mesh": 18,
      "name": "FR_rim_bottom_0"
    },
    {
      "mesh": 19,
      "name": "FR_tire_0"
    },
    {
      "mesh": 20,
      "name": "FR_rim_0"
    },
    {
      "mesh": 21,
      "name": "FR_rim_disc_0"
    },
    {
      "mesh": 22,
      "name": "FR_caliper_0"
    },
    {
      "mesh": 23,
      "name": "FR_caliper_logo_0"
    },
    {
      "children": [
        32,
        33,
        34,
        35,
        36,
        37,
        38,
        39,
        40,
        41,
        42,
        43,
        44,
        45,
        46,
        47
      ],
      "name": "BODY"
    },
    {
      "mesh": 24,
      "name": "BODY_imerior_emissiv_0"
    },
    {
      "mesh": 25,
      "name": "BODY_windowmask_0"
    },
    {
      "mesh": 26,
      "name": "BODY_misc_bottom_0"
    },
    {
      "mesh": 27,
      "name": "BODY_lightglass_0"
    },
    {
      "mesh": 28,
      "name": "BODY_body_0"
    },
    {
      "mesh": 29,
      "name": "BODY_window_1_0"
    },
    {
      "mesh": 30,
      "name": "BODY_misc_0"
    },
    {
      "mesh": 31,
      "name": "BODY_chasis_0"
    },
    {
      "mesh": 32,
      "name": "BODY_plate_0"
    },
    {
      "mesh": 33,
      "name": "BODY_grill_0"
    },
    {
      "mesh": 34,
      "name": "BODY_interior_0"
    },
    {
      "mesh": 35,
      "name": "BODY_chrome_0"
    },
    {
      "mesh": 36,
      "name": "BODY_black__0"
    },
    {
      "mesh": 37,
      "name": "BODY_misc_mat_0"
    },
    {
      "mesh": 38,
      "name": "BODY_silver_0"
    },
    {
      "mesh": 39,
      "name": "BODY_mirror_0"
    }
  ],
  "samplers": [
    {
      "magFilter": 9729,
      "minFilter": 9987,
      "wrapS": 10497,
      "wrapT": 10497
    }
  ],
  "scene": 0,
  "scenes": [
    {
      "name": "Sketchfab_Scene",
      "nodes": [
        0
      ]
    }
  ],
  "textures": [
    {
      "sampler": 0,
      "source": 0
    },
    {
      "sampler": 0,
      "source": 1
    },
    {
      "sampler": 0,
      "source": 2
    },
    {
      "sampler": 0,
      "source": 3
    },
    {
      "sampler": 0,
      "source": 4
    },
    {
      "sampler": 0,
      "source": 5
    },
    {
      "sampler": 0,
      "source": 6
    },
    {
      "sampler": 0,
      "source": 7
    },
    {
      "sampler": 0,
      "source": 8
    },
    {
      "sampler": 0,
      "source": 9
    },
    {
      "sampler": 0,
      "source": 10
    },
    {
      "sampler": 0,
      "source": 11
    }
  ]
}
